<svg id="Layer_1" data-name="Layer 1" xmlns="http://www.w3.org/2000/svg" viewBox="0 0 24 24"><defs><style>.cls-1{fill:#fff;}.cls-2{font-size:1.59px;fill:#ff5933;font-family:MADEOuterSans-Bold, MADE Outer Sans;font-weight:700;}</style></defs><circle class="cls-1" cx="22.8" cy="12.01" r="0.75"/><circle class="cls-1" cx="1.2" cy="12" r="0.75"/><text class="cls-2" transform="translate(1.64 10.15) rotate(-76.47)">E</text><text class="cls-2" transform="translate(1.93 8.97) rotate(-70.06)">u</text><text class="cls-2" transform="translate(2.31 7.91) rotate(-63.75)">p</text><text class="cls-2" transform="translate(2.83 6.86) rotate(-57.51)">h</text><text class="cls-2" transform="translate(3.43 5.91) rotate(-51.33)">o</text><text class="cls-2" transform="translate(4.16 5.01) rotate(-45.85)">r</text><text class="cls-2" transform="matrix(0.74, -0.67, 0.67, 0.74, 4.76, 4.4)">i</text><text class="cls-2" transform="translate(5.09 4.08) rotate(-37.99)">c</text><text class="cls-2" transform="matrix(0.85, -0.53, 0.53, 0.85, 5.96, 3.4)">h</text><text class="cls-2" transform="matrix(0.9, -0.43, 0.43, 0.9, 6.93, 2.79)">u</text><text class="cls-2" transform="matrix(0.95, -0.31, 0.31, 0.95, 7.92, 2.29)">m</text><text class="cls-2" transform="translate(9.5 1.8) rotate(-10.66)">a</text><text class="cls-2" transform="translate(10.56 1.59) rotate(-4.72)">n</text><text class="cls-2" transform="matrix(1, -0.02, 0.02, 1, 11.69, 1.51)"> </text><text class="cls-2" transform="matrix(1, 0.07, -0.07, 1, 12.08, 1.49)">E</text><text class="cls-2" transform="translate(13.3 1.57) rotate(10.13)">u</text><text class="cls-2" transform="matrix(0.96, 0.28, -0.28, 0.96, 14.4, 1.77)">p</text><text class="cls-2" transform="translate(15.53 2.1) rotate(22.76)">h</text><text class="cls-2" transform="translate(16.55 2.53) rotate(28.86)">o</text><text class="cls-2" transform="matrix(0.83, 0.56, -0.56, 0.83, 17.56, 3.09)">r</text><text class="cls-2" transform="translate(18.27 3.59) rotate(37.99)">i</text><text class="cls-2" transform="matrix(0.74, 0.67, -0.67, 0.74, 18.63, 3.85)">c</text><text class="cls-2" transform="translate(19.48 4.62) rotate(48.41)">h</text><text class="cls-2" transform="matrix(0.58, 0.81, -0.81, 0.58, 20.21, 5.44)">u</text><text class="cls-2" transform="translate(20.88 6.35) rotate(62.01)">m</text><text class="cls-2" transform="translate(21.64 7.82) rotate(69.53)">a</text><text class="cls-2" transform="translate(22.03 8.84) rotate(75.57)">n</text><text class="cls-2" transform="translate(22.36 13.86) rotate(103.53)">E</text><text class="cls-2" transform="translate(22.07 15.04) rotate(109.94)">u</text><text class="cls-2" transform="matrix(-0.44, 0.9, -0.9, -0.44, 21.69, 16.1)">p</text><text class="cls-2" transform="matrix(-0.54, 0.84, -0.84, -0.54, 21.17, 17.15)">h</text><text class="cls-2" transform="matrix(-0.62, 0.78, -0.78, -0.62, 20.57, 18.1)">o</text><text class="cls-2" transform="translate(19.84 19) rotate(134.15)">r</text><text class="cls-2" transform="matrix(-0.74, 0.67, -0.67, -0.74, 19.24, 19.61)">i</text><text class="cls-2" transform="translate(18.91 19.93) rotate(142.01)">c</text><text class="cls-2" transform="translate(18.04 20.61) rotate(148.03)">h</text><text class="cls-2" transform="matrix(-0.9, 0.43, -0.43, -0.9, 17.07, 21.22)">u</text><text class="cls-2" transform="translate(16.08 21.72) rotate(161.84)">m</text><text class="cls-2" transform="translate(14.5 22.21) rotate(169.34)">a</text><text class="cls-2" transform="translate(13.44 22.42) rotate(175.28)">n</text><text class="cls-2" transform="matrix(-1, 0.02, -0.02, -1, 12.31, 22.5)"> </text><text class="cls-2" transform="matrix(-1, -0.07, 0.07, -1, 11.92, 22.52)">E</text><text class="cls-2" transform="translate(10.7 22.44) rotate(-169.87)">u</text><text class="cls-2" transform="matrix(-0.96, -0.28, 0.28, -0.96, 9.6, 22.24)">p</text><text class="cls-2" transform="translate(8.47 21.91) rotate(-157.24)">h</text><text class="cls-2" transform="matrix(-0.88, -0.48, 0.48, -0.88, 7.45, 21.48)">o</text><text class="cls-2" transform="matrix(-0.83, -0.56, 0.56, -0.83, 6.44, 20.92)">r</text><text class="cls-2" transform="matrix(-0.79, -0.62, 0.62, -0.79, 5.73, 20.43)">i</text><text class="cls-2" transform="translate(5.37 20.16) rotate(-137.74)">c</text><text class="cls-2" transform="translate(4.52 19.39) rotate(-131.59)">h</text><text class="cls-2" transform="translate(3.79 18.57) rotate(-125.59)">u</text><text class="cls-2" transform="translate(3.12 17.66) rotate(-117.99)">m</text><text class="cls-2" transform="translate(2.36 16.19) rotate(-110.47)">a</text><text class="cls-2" transform="translate(1.97 15.17) rotate(-104.43)">n</text></svg>