<svg id="Layer_1" data-name="Layer 1" xmlns="http://www.w3.org/2000/svg" viewBox="0 0 24 24"><defs><style>.cls-1{fill:#ff5933;}.cls-2{fill:none;}</style></defs><path class="cls-1" d="M12,23.8a55.44,55.44,0,0,0-.42-6.42,6.08,6.08,0,0,0-1.44-3.52,6.08,6.08,0,0,0-3.52-1.44A55.44,55.44,0,0,0,.2,12a55.44,55.44,0,0,0,6.42-.42,6.08,6.08,0,0,0,3.52-1.44,6.08,6.08,0,0,0,1.44-3.52A55.44,55.44,0,0,0,12,.2a55.44,55.44,0,0,0,.42,6.42,6.08,6.08,0,0,0,1.44,3.52,6.08,6.08,0,0,0,3.52,1.44A55.44,55.44,0,0,0,23.8,12a55.44,55.44,0,0,0-6.42.42,6.08,6.08,0,0,0-3.52,1.44,6.08,6.08,0,0,0-1.44,3.52A55.44,55.44,0,0,0,12,23.8Z"/><path class="cls-2" d="M12,.41a55.06,55.06,0,0,0,.41,6.21,6,6,0,0,0,1.45,3.52,6,6,0,0,0,3.52,1.45,55.06,55.06,0,0,0,6.21.41,55.06,55.06,0,0,0-6.21.41,6,6,0,0,0-3.52,1.45,6,6,0,0,0-1.45,3.52A55.06,55.06,0,0,0,12,23.59a55.06,55.06,0,0,0-.41-6.21,6,6,0,0,0-1.45-3.52,6,6,0,0,0-3.52-1.45A55.06,55.06,0,0,0,.41,12a55.06,55.06,0,0,0,6.21-.41,6,6,0,0,0,3.52-1.45,6,6,0,0,0,1.45-3.52A55.06,55.06,0,0,0,12,.41M12,0c-.35,11.37-.63,11.65-12,12,11.37.35,11.65.63,12,12,.35-11.37.63-11.65,12-12-11.37-.35-11.65-.63-12-12Z"/></svg>